<?xml version="1.0" encoding="utf-8"?>
<!-- Generator: Adobe Illustrator 22.0.1, SVG Export Plug-In . SVG Version: 6.00 Build 0)  -->
<svg version="1.1" xmlns="http://www.w3.org/2000/svg" xmlns:xlink="http://www.w3.org/1999/xlink" x="0px" y="0px"
	 viewBox="0 0 602.7 200.1" style="enable-background:new 0 0 602.7 200.1;" xml:space="preserve">
<g id="Layer_2">
</g>
<g id="Ñëîé_1" stroke="#00FFA7" fill="#00FFA7">
	<g>
		<polygon points="140.1,127.4 174.5,38.2 208.8,127.4 238.3,127.4 189.3,0 189.3,0 189.3,0 159.8,0 159.8,0 159.8,0 110.7,127.4 		
			"/>
		<g>
			<g>
				<rect y="50" width="82.6" height="27.5"/>
			</g>
			<g>
				<rect y="99.8" width="82.6" height="27.5"/>
			</g>
			<g>
				<rect y="0.1" width="82.6" height="27.5"/>
			</g>
		</g>
		<g>
			<g>
				<rect x="487.6" y="0.1" width="27.5" height="127.2"/>
			</g>
		</g>
		<g>
			<path d="M302,90.5l36.8,36.8H300l-36.1-36.1l0.1-27.5h29.5c5.9,0,10.5-1.8,13.6-5.3c2.9-3.2,4.5-7.9,4.5-12.8
				c0-1.2-0.2-8.3-5-13.2c-2.7-2.8-6.8-4.9-13.1-4.9H264V0h29.5c2.1,0,4.2,0.1,6.3,0.4C310,1.7,319.1,6,326,13
				c0.5,0.5,1.1,1.1,1.6,1.7c7.4,8.3,11.4,19.3,11.4,31s-4.1,22.7-11.4,31C321,84,312.2,88.8,302,90.5z"/>
		</g>
		<g>
			<rect x="395.1" y="55.1" width="27.5" height="72.3"/>
			<polygon points="422.6,0.1 395.1,0.1 360.1,0.1 360.1,27.6 395.1,27.6 422.6,27.6 457.5,27.6 457.5,0.1 			"/>
		</g>
		<polygon points="575.2,0.1 575.2,50 546,50 546,77.4 575.2,77.4 575.2,127.3 602.7,127.3 602.7,77.4 602.7,50 602.7,0.1 		"/>
	</g>
	<path d="M0.9,196.7c0-13.7,17.8-15.9,17.8-23.5c0-3.3-2.6-5.3-5.8-5.3c-4.5,0-6.9,4.5-6.9,4.5L0.9,169c0,0,3.5-7.6,12.6-7.6
		c6.7,0,12.4,4.1,12.4,11.3c0,12.2-17.1,14.3-17.2,21.5h17.8v6H1.2C1.1,198.9,0.9,197.8,0.9,196.7z"/>
	<path d="M191.7,181c0-10.9,3.4-19.6,13.8-19.6c10.4,0,13.8,8.7,13.8,19.6c0,10.9-3.4,19.7-13.8,19.7
		C195.1,200.7,191.7,191.9,191.7,181z M212.2,181c0-7.4-1.5-13.2-6.7-13.2c-5.2,0-6.7,5.8-6.7,13.2c0,7.5,1.5,13.4,6.7,13.4
		C210.7,194.4,212.2,188.5,212.2,181z"/>
	<path d="M388,190.4c0,0,3.2,3.8,8.1,3.8c3.7,0,7.2-2.5,7.2-6.5c0-4-3.3-6.6-7.7-6.6c-3.4,0-5.9,1.6-5.9,1.6l-3.8-1.4l1.8-19.3h20v6
		h-14.1l-0.6,6.3c-0.1,1-0.3,1.8-0.3,1.8h0.1c0,0,1.8-0.9,4.1-0.9c8.4,0,13.4,5.6,13.4,12.5c0,7.5-5.8,13.1-13.7,13.1
		c-8,0-12.2-5.1-12.2-5.1L388,190.4z"/>
	<path d="M575.4,181c0-10.9,3.4-19.6,13.8-19.6c10.4,0,13.8,8.7,13.8,19.6c0,10.9-3.4,19.7-13.8,19.7
		C578.8,200.7,575.4,191.9,575.4,181z M595.9,181c0-7.4-1.5-13.2-6.7-13.2c-5.2,0-6.7,5.8-6.7,13.2c0,7.5,1.5,13.4,6.7,13.4
		C594.4,194.4,595.9,188.5,595.9,181z"/>
</g>
</svg>
